# xmcd
#
# Track frame offsets: 
#        150
#        10685
#        27882
#        45320
#        67517
#        84245
#        94680
#        112267
#        124830
#        148795
#        162167
#        177142
#        190997
#
# Disc length: 2770 seconds
#
# Revision: 2
# Processed by: cddbd v1.5.1PL0 Copyright (c) Steve Scherf et al.
# Submitted via: ExactAudioCopy v0.95b2
#
DISCID=9b0ad00d
DTITLE=Various Artist - Jazz Vocal-Man
DYEAR=1900
DGENRE=Jazz
TTITLE0=Louis Armstrong - What A Wonderful World
TTITLE1=Nat King Cole - The Very Thought Of You
TTITLE2=Mel Torme - That's All
TTITLE3=Johny Hartman - My One And Only Love
TTITLE4=Mark Murphy - Green Dolphin Street
TTITLE5=Chet Baker - My Funny Valentine
TTITLE6=Nat King Cole - Magnificent Obsession
TTITLE7=Mel Torme - I've Got You Under My Skin
TTITLE8=Johnny Hartman - They Say It's Wonderful
TTITLE9=Louis Armstrong - Moon River
TTITLE10=Frank Sinatra - Around The World
TTITLE11=Chet Baker - But Not For Me
TTITLE12=Frank Sinatra - Hello Young Lovers
EXTD=
EXTT0=
EXTT1=
EXTT2=
EXTT3=
EXTT4=
EXTT5=
EXTT6=
EXTT7=
EXTT8=
EXTT9=
EXTT10=
EXTT11=
EXTT12=
PLAYORDER=
